# xmcd
#
# Track frame offsets:
#	150
#	15072
#	26870
#	36860
#	50009
#	63372
#	76725
#	88277
#	103561
#	118997
#	133541
#	146197
#	159451
#	177280
#	187315
#	201353
#	215208
#	228021
#	241219
#	255111
#
# Disc length: 3591 seconds
#
# Revision: 0
# Processed by: cddbd v1.4PL0 Copyright (c) Steve Scherf et al.
# Submitted via: EasyCDDAExtractor 5.0.0.0
#
DISCID=190e0514
DTITLE=Don Williams - Greatest Hits
DYEAR=1900
DGENRE=
TTITLE0=I Recall A Gipsy Woman
TTITLE1=Dont You Believe
TTITLE2=Fly Away
TTITLE3=Goodbye Isnt Really Good At All
TTITLE4=I Wouldnt Want To Live
TTITLE5=Reason To Be
TTITLE6=Such A Lovely Lady
TTITLE7=Tempted
TTITLE8=Till The Rivers All Run Dry
TTITLE9=Shes In Love With A Rodeo Man
TTITLE10=Youre My Best Friend
TTITLE11=Where Are You
TTITLE12=Where The Arkansas River
TTITLE13=Why Lord Goodbye
TTITLE14=Cup OTea
TTITLE15=Amanda
TTITLE16=Atta Way To Go
TTITLE17=In The Shelter Of Your Eyes
TTITLE18=We Should Be Together
TTITLE19=Womans Love
EXTD=
EXTT0=
EXTT1=
EXTT2=
EXTT3=
EXTT4=
EXTT5=
EXTT6=
EXTT7=
EXTT8=
EXTT9=
EXTT10=
EXTT11=
EXTT12=
EXTT13=
EXTT14=
EXTT15=
EXTT16=
EXTT17=
EXTT18=
EXTT19=
PLAYORDER=
